<svg width="172" height="53" viewBox="0 0 172 53" fill="none" xmlns="http://www.w3.org/2000/svg">
<g filter="url(#filter0_d_2_7)">
<path d="M4.73558 10.5385H9.65865V15.4615H4.73558V10.5385ZM4.73558 15.4615H9.65865V20.3846H4.73558V15.4615ZM4.73558 20.3846H9.65865V25.3077H4.73558V20.3846ZM4.73558 25.3077H9.65865V30.2308H4.73558V25.3077ZM9.65865 30.2308H14.5817V35.1538H9.65865V30.2308ZM9.65865 35.1538H14.5817V40.0769H9.65865V35.1538ZM14.5817 35.1538H19.5048V40.0769H14.5817V35.1538ZM19.5048 40.0769H24.4279V45H19.5048V40.0769ZM24.4279 40.0769H29.351V45H24.4279V40.0769ZM29.351 40.0769H34.274V45H29.351V40.0769ZM34.274 40.0769H39.1971V45H34.274V40.0769ZM39.1971 35.1538H44.1202V40.0769H39.1971V35.1538ZM9.65865 5.61538H14.5817V10.5385H9.65865V5.61538ZM14.5817 0.692307H19.5048V5.61538H14.5817V0.692307ZM19.5048 0.692307H24.4279V5.61538H19.5048V0.692307ZM24.4279 0.692307H29.351V5.61538H24.4279V0.692307ZM29.351 5.61538H34.274V10.5385H29.351V5.61538ZM34.274 0.692307H39.1971V5.61538H34.274V0.692307ZM39.1971 0.692307H44.1202V5.61538H39.1971V0.692307ZM39.1971 5.61538H44.1202V10.5385H39.1971V5.61538ZM19.5048 10.5385H24.4279V15.4615H19.5048V10.5385ZM19.5048 15.4615H24.4279V20.3846H19.5048V15.4615ZM24.4279 20.3846H29.351V25.3077H24.4279V20.3846ZM19.5048 25.3077H24.4279V30.2308H19.5048V25.3077ZM29.351 20.3846H34.274V25.3077H29.351V20.3846ZM34.274 15.4615H39.1971V20.3846H34.274V15.4615ZM34.274 20.3846H39.1971V25.3077H34.274V20.3846ZM34.274 25.3077H39.1971V30.2308H34.274V25.3077ZM58.8942 15.4615H63.8173V20.3846H58.8942V15.4615ZM63.8173 15.4615H68.7404V20.3846H63.8173V15.4615ZM68.7404 20.3846H73.6635V25.3077H68.7404V20.3846ZM53.9712 20.3846H58.8942V25.3077H53.9712V20.3846ZM53.9712 25.3077H58.8942V30.2308H53.9712V25.3077ZM53.9712 30.2308H58.8942V35.1538H53.9712V30.2308ZM53.9712 35.1538H58.8942V40.0769H53.9712V35.1538ZM49.0481 40.0769H53.9712V45H49.0481V40.0769ZM58.8942 40.0769H63.8173V45H58.8942V40.0769ZM63.8173 40.0769H68.7404V45H63.8173V40.0769ZM68.7404 35.1538H73.6635V40.0769H68.7404V35.1538ZM78.6106 40.0769H83.5337V45H78.6106V40.0769ZM83.5337 35.1538H88.4567V40.0769H83.5337V35.1538ZM83.5337 30.2308H88.4567V35.1538H83.5337V30.2308ZM83.5337 25.3077H88.4567V30.2308H83.5337V25.3077ZM83.5337 20.3846H88.4567V25.3077H83.5337V20.3846ZM88.4567 40.0769H93.3798V45H88.4567V40.0769ZM93.3798 40.0769H98.3029V45H93.3798V40.0769ZM98.3029 35.1538H103.226V40.0769H98.3029V35.1538ZM98.3029 30.2308H103.226V35.1538H98.3029V30.2308ZM98.3029 25.3077H103.226V30.2308H98.3029V25.3077ZM98.3029 20.3846H103.226V25.3077H98.3029V20.3846ZM88.4567 15.4615H93.3798V20.3846H88.4567V15.4615ZM93.3798 15.4615H98.3029V20.3846H93.3798V15.4615ZM103.226 15.4615H108.149V20.3846H103.226V15.4615ZM117.971 0.692307H122.894V5.61538H117.971V0.692307ZM132.74 0.692307H137.663V5.61538H132.74V0.692307ZM137.663 0.692307H142.587V5.61538H137.663V0.692307ZM152.433 0.692307H157.356V5.61538H152.433V0.692307ZM157.356 0.692307H162.279V5.61538H157.356V0.692307ZM132.74 20.3846H137.663V25.3077H132.74V20.3846ZM132.74 25.3077H137.663V30.2308H132.74V25.3077ZM132.74 30.2308H137.663V35.1538H132.74V30.2308ZM127.817 35.1538H132.74V40.0769H127.817V35.1538ZM142.587 40.0769H147.51V45H142.587V40.0769ZM162.279 20.3846H167.202V25.3077H162.279V20.3846ZM162.279 25.3077H167.202V30.2308H162.279V25.3077ZM162.279 30.2308H167.202V35.1538H162.279V30.2308ZM162.279 35.1538H167.202V40.0769H162.279V35.1538ZM147.51 25.3077H152.433V30.2308H147.51V25.3077ZM147.51 30.2308H152.433V35.1538H147.51V30.2308ZM113.048 15.4615H117.971V20.3846H113.048V15.4615ZM117.971 20.3846H122.894V25.3077H117.971V20.3846ZM117.971 25.3077H122.894V30.2308H117.971V25.3077ZM113.048 25.3077H117.971V30.2308H113.048V25.3077ZM147.51 35.1538H152.433V40.0769H147.51V35.1538ZM122.894 0.692307H127.817V5.61538H122.894V0.692307ZM113.048 5.61538H117.971V10.5385H113.048V5.61538ZM113.048 10.5385H117.971V15.4615H113.048V10.5385ZM122.894 5.61538H127.817V10.5385H122.894V5.61538ZM127.817 5.61538H132.74V10.5385H127.817V5.61538ZM127.817 10.5385H132.74V15.4615H127.817V10.5385ZM147.51 5.61538H152.433V10.5385H147.51V5.61538ZM142.587 5.61538H147.51V10.5385H142.587V5.61538ZM142.587 10.5385H147.51V15.4615H142.587V10.5385ZM147.51 20.3846H152.433V25.3077H147.51V20.3846ZM132.74 15.4615H137.663V20.3846H132.74V15.4615ZM147.51 15.4615H152.433V20.3846H147.51V15.4615ZM162.279 15.4615H167.202V20.3846H162.279V15.4615ZM122.894 40.0769H127.817V45H122.894V40.0769ZM117.971 40.0769H122.894V45H117.971V40.0769ZM117.971 35.1538H122.894V40.0769H117.971V35.1538ZM162.279 5.61538H167.202V10.5385H162.279V5.61538ZM162.279 10.5385H167.202V15.4615H162.279V10.5385ZM162.279 40.0769H167.202V45H162.279V40.0769ZM113.048 35.1538H117.971V40.0769H113.048V35.1538Z" fill="url(#paint0_linear_2_7)" shape-rendering="crispEdges"/>
</g>
<defs>
<filter id="filter0_d_2_7" x="0.735596" y="0.692307" width="170.466" height="52.3077" filterUnits="userSpaceOnUse" color-interpolation-filters="sRGB">
<feFlood flood-opacity="0" result="BackgroundImageFix"/>
<feColorMatrix in="SourceAlpha" type="matrix" values="0 0 0 0 0 0 0 0 0 0 0 0 0 0 0 0 0 0 127 0" result="hardAlpha"/>
<feOffset dy="4"/>
<feGaussianBlur stdDeviation="2"/>
<feComposite in2="hardAlpha" operator="out"/>
<feColorMatrix type="matrix" values="0 0 0 0 0 0 0 0 0 0 0 0 0 0 0 0 0 0 0.25 0"/>
<feBlend mode="normal" in2="BackgroundImageFix" result="effect1_dropShadow_2_7"/>
<feBlend mode="normal" in="SourceGraphic" in2="effect1_dropShadow_2_7" result="shape"/>
</filter>
<linearGradient id="paint0_linear_2_7" x1="-56" y1="23" x2="109" y2="23" gradientUnits="userSpaceOnUse">
<stop stop-color="#0000F3"/>
<stop offset="1" stop-color="#FF0000" stop-opacity="0.701961"/>
</linearGradient>
</defs>
</svg>
